<svg width="512" height="512" viewBox="0 0 512 512" fill="none" xmlns="http://www.w3.org/2000/svg" xmlns:xlink="http://www.w3.org/1999/xlink" class="h-full w-full" id="iconWithBackground"><rect id="r4" width="512" height="512" x="0" y="0" rx="128" fill="#e0e7ff" stroke="#000000" stroke-width="0" stroke-opacity="100%" paint-order="stroke"></rect><defs><linearGradient id="linearGradient" gradientUnits="userSpaceOnUse" gradientTransform="rotate(0)" style="transform-origin: center center;"><stop stop-color="#8e2de2"></stop><stop offset="1" stop-color="#4a00e0"></stop></linearGradient><radialGradient id="glare" cx="0" cy="0" r="1" gradientUnits="userSpaceOnUse" gradientTransform="translate(256) rotate(90) scale(512)"><stop stop-color="white"></stop><stop offset="1" stop-color="white" stop-opacity="0"></stop></radialGradient><clipPath id="clip"><use xlink:href="#r4"></use></clipPath></defs><svg xmlns="http://www.w3.org/2000/svg" xmlns:xlink="http://www.w3.org/1999/xlink" aria-hidden="true" role="img" x="0" y="0" class="iconify iconify--ph" width="512" height="512" viewBox="0 0 256 256" style="color: rgb(139, 147, 162);"><g fill="currentColor"><path d="M96 64a24 24 0 1 1-24-24a24 24 0 0 1 24 24Zm104 104a24 24 0 1 0 24 24a24 24 0 0 0-24-24Z" opacity=".2"></path><path d="M104 64a32 32 0 1 0-40 31v66a32 32 0 1 0 16 0V95a32.06 32.06 0 0 0 24-31Zm-48 0a16 16 0 1 1 16 16a16 16 0 0 1-16-16Zm32 128a16 16 0 1 1-16-16a16 16 0 0 1 16 16Zm120-31v-37.12a55.67 55.67 0 0 0-16.4-39.6L163.31 56H192a8 8 0 0 0 0-16h-48a8 8 0 0 0-8 8v48a8 8 0 0 0 16 0V67.31l28.28 28.29A39.71 39.71 0 0 1 192 123.88V161a32 32 0 1 0 16 0Zm-8 47a16 16 0 1 1 16-16a16 16 0 0 1-16 16Z"></path></g></svg></svg>